<svg width="49" height="49" viewBox="0 0 49 49" fill="none" xmlns="http://www.w3.org/2000/svg">
<g clip-path="url(#clip0_53_26)">
<path d="M24.5 48.8721C37.7548 48.8721 48.5 38.127 48.5 24.8721C48.5 11.6173 37.7548 0.87207 24.5 0.87207C11.2452 0.87207 0.5 11.6173 0.5 24.8721C0.5 38.127 11.2452 48.8721 24.5 48.8721Z" fill="#FFA40B"/>
<mask id="mask0_53_26" style="mask-type:alpha" maskUnits="userSpaceOnUse" x="0" y="0" width="49" height="49">
<path d="M24.5 48.8721C37.7548 48.8721 48.5 38.127 48.5 24.8721C48.5 11.6173 37.7548 0.87207 24.5 0.87207C11.2452 0.87207 0.5 11.6173 0.5 24.8721C0.5 38.127 11.2452 48.8721 24.5 48.8721Z" fill="#FFA40B"/>
</mask>
<g mask="url(#mask0_53_26)">
<path fill-rule="evenodd" clip-rule="evenodd" d="M10.707 26.6069V26.9618L46.1861 61.8481C48.525 60.4644 53.361 57.539 53.9935 56.9065C54.7841 56.1159 56.4642 52.8546 56.6618 51.9651C56.82 51.2536 57.8478 48.7697 58.3419 47.6167L56.6618 45.2448L26.0337 15.0081C25.7299 14.5592 25.3888 14.138 25.0167 13.7539C24.8074 13.9051 24.5981 14.0504 24.3888 14.1958C24.1795 14.3411 23.9702 14.4865 23.7609 14.6376C23.7143 14.6842 23.6446 14.7074 23.5981 14.7074C22.8771 14.0097 21.9934 13.4283 21.0166 13.0329V12.9166C21.0529 12.7835 21.0766 12.6441 21.1008 12.5017L21.1008 12.5017L21.1008 12.5016C21.1231 12.3704 21.1459 12.2365 21.1794 12.1027C21.2259 11.8468 21.2724 11.591 21.3189 11.3585C20.8305 11.1957 20.3421 11.0561 19.8305 10.9631C19.3188 10.8701 18.8072 10.8235 18.2955 10.8003L18.156 11.5678C18.1396 11.6663 18.1203 11.762 18.1011 11.8568L18.1011 11.8568C18.066 12.0304 18.0315 12.2012 18.0165 12.3817C18.0165 12.405 18.0107 12.4224 18.0048 12.4399C17.999 12.4573 17.9932 12.4748 17.9932 12.498C16.9467 12.498 15.9234 12.7306 14.9931 13.126C14.9548 13.1068 14.9323 13.0719 14.8996 13.0213L14.8996 13.0213C14.8926 13.0104 14.8851 12.9988 14.8768 12.9864C14.773 12.8307 14.6659 12.6749 14.558 12.5179L14.558 12.5179L14.558 12.5179C14.376 12.253 14.1916 11.9847 14.0163 11.7073C13.0628 12.1492 12.1791 12.7539 11.4348 13.4748C11.7139 13.8702 11.993 14.2655 12.2488 14.6609C12.3186 14.7539 12.3651 14.8237 12.3884 14.8702C11.6907 15.5912 11.1092 16.4517 10.7139 17.4284C10.6674 17.4284 10.6209 17.4284 10.5511 17.4052C10.2338 17.3296 9.90674 17.2737 9.5826 17.2183C9.40777 17.1884 9.23379 17.1587 9.06266 17.1261H9.03941C8.85336 17.6145 8.71382 18.1261 8.62079 18.6378C8.52776 19.1494 8.45799 19.6843 8.45799 20.196C8.48125 20.196 8.50451 20.196 8.52776 20.2192C8.78335 20.2657 9.04473 20.3122 9.30612 20.3586L9.30614 20.3586L9.30686 20.3588C9.5685 20.4053 9.83013 20.4518 10.086 20.4983C10.1092 20.4983 10.1325 20.4983 10.1325 20.5216C10.1557 21.5914 10.365 22.6147 10.7837 23.5682C10.7604 23.5914 10.7371 23.6147 10.6906 23.638C10.2953 23.8938 9.89994 24.1728 9.50459 24.4519L9.50454 24.4519C9.45803 24.4752 9.41151 24.5217 9.38826 24.545C9.73506 25.2933 10.1821 25.9844 10.707 26.6069Z" fill="#E97730"/>
</g>
<path d="M24.5876 27.3395C24.3085 26.9442 24.0527 26.5488 23.7736 26.1534C23.7503 26.1302 23.7271 26.0837 23.7271 26.0604C24.448 25.3162 25.0294 24.4557 25.4248 23.4557C25.4481 23.4557 25.4481 23.4557 25.4713 23.4557C25.983 23.5487 26.5179 23.6417 27.0295 23.758C27.0528 23.758 27.076 23.758 27.0993 23.758C27.2853 23.2696 27.4016 22.758 27.5179 22.2463C27.6109 21.7114 27.6807 21.1998 27.6807 20.6881H27.6574C27.169 20.5951 26.6574 20.5021 26.169 20.4091C26.0992 20.4091 26.0527 20.3858 26.0062 20.3625C25.983 19.316 25.7736 18.2927 25.3783 17.3624C25.4248 17.3159 25.4946 17.2694 25.5876 17.1996C25.983 16.9206 26.3783 16.6415 26.7737 16.3857C26.3318 15.4321 25.7271 14.5484 25.0062 13.8042C24.5876 14.1065 24.1689 14.3856 23.7503 14.6879C23.7038 14.7344 23.634 14.7577 23.5875 14.7577C22.8666 14.06 21.9828 13.4786 21.006 13.0832C21.006 13.06 21.006 13.0135 21.006 12.9669C21.0758 12.7111 21.0991 12.432 21.1688 12.153C21.2153 11.8971 21.2619 11.6413 21.3084 11.4087C20.82 11.2459 20.3316 11.1064 19.8199 11.0134C19.3083 10.9204 18.7967 10.8738 18.285 10.8506C18.2385 11.1064 18.192 11.3622 18.1455 11.6181C18.099 11.8971 18.0292 12.153 18.0059 12.432C18.0059 12.4786 17.9827 12.5018 17.9827 12.5483C16.9361 12.5483 15.9128 12.7809 14.9826 13.1762C14.9361 13.153 14.9128 13.1065 14.8663 13.0367C14.5872 12.6181 14.2849 12.1995 14.0058 11.7576C13.0523 12.1995 12.1685 12.8041 11.4243 13.5251C11.7034 13.9205 11.9825 14.3158 12.2383 14.7112C12.3081 14.8042 12.3546 14.874 12.3778 14.9205C11.6801 15.6415 11.0987 16.5019 10.7033 17.4787C10.6568 17.4787 10.6103 17.4787 10.5406 17.4555C10.0522 17.3392 9.54052 17.2694 9.05213 17.1764H9.02887C8.84282 17.6648 8.70328 18.1764 8.61025 18.6881C8.51723 19.1997 8.44746 19.7346 8.44746 20.2463C8.47071 20.2463 8.49397 20.2463 8.51723 20.2695C9.02887 20.3625 9.56377 20.4556 10.0754 20.5486C10.0987 20.5486 10.1219 20.5486 10.1219 20.5719C10.1452 21.6417 10.3545 22.665 10.7731 23.6185C10.7499 23.6417 10.7266 23.665 10.6801 23.6882C10.2847 23.9441 9.88937 24.2231 9.494 24.5022C9.44749 24.5255 9.40098 24.572 9.37772 24.5953C9.8196 25.5488 10.4243 26.4093 11.1452 27.1535L11.1685 27.1302C11.5871 26.8279 12.029 26.5488 12.4476 26.2465C12.4709 26.2232 12.5174 26.2 12.5406 26.2C13.2616 26.9209 14.1453 27.4791 15.1221 27.8744C15.1221 27.921 15.1221 27.9675 15.0989 28.014C14.9826 28.5256 14.9128 29.014 14.7965 29.5257V29.5489C15.2616 29.7117 15.7733 29.8513 16.2849 29.9443C16.7966 30.0373 17.3082 30.0838 17.8199 30.1071V30.0838C17.9129 29.5722 18.0059 29.0838 18.099 28.5721C18.099 28.5256 18.1222 28.4791 18.1455 28.4326C19.192 28.4326 20.2386 28.2 21.1688 27.8047C21.1921 27.8279 21.2153 27.8512 21.2386 27.8977C21.5177 28.3396 21.82 28.7582 22.1224 29.2001L22.1456 29.2233C23.0991 28.7814 23.9596 28.2 24.7271 27.4791C24.6573 27.4326 24.6108 27.4093 24.5876 27.3395ZM22.8201 21.3858C22.7735 21.6417 22.7038 21.8975 22.6107 22.1533C22.3549 22.8743 21.913 23.5022 21.3781 24.0138C21.006 24.3859 20.5642 24.665 20.0758 24.8976C19.4013 25.1999 18.6804 25.3627 17.9129 25.3395C17.6571 25.3395 17.4013 25.3162 17.1454 25.2464C16.8896 25.1999 16.6338 25.1302 16.4012 25.0371C15.6803 24.7813 15.0523 24.3627 14.5407 23.8278C14.1686 23.4557 13.8663 23.0138 13.6569 22.5254C13.3313 21.851 13.1686 21.1068 13.1918 20.3393C13.1918 20.0835 13.2151 19.8044 13.2848 19.5486C13.3313 19.2927 13.4011 19.0369 13.4941 18.7811C13.75 18.0601 14.1686 17.4322 14.7035 16.9206C15.0989 16.5485 15.5407 16.2461 16.0059 16.0368C16.6803 15.7345 17.4013 15.5717 18.1687 15.5949C18.4246 15.5949 18.6804 15.6182 18.9362 15.688C19.192 15.7345 19.4478 15.8042 19.6804 15.8973C20.4014 16.1531 21.0293 16.5717 21.5409 17.1066C21.913 17.502 22.2154 17.9439 22.4479 18.409C22.7503 19.0834 22.9131 19.8044 22.9131 20.5719C22.8898 20.8509 22.8666 21.13 22.8201 21.3858Z" fill="white"/>
<path d="M19.6571 18.9438C19.4246 18.7112 19.1455 18.5019 18.7966 18.3856C18.6804 18.3391 18.5641 18.3158 18.4478 18.2926C18.3315 18.2693 18.2152 18.2693 18.0989 18.2461C17.7501 18.2461 17.4012 18.3158 17.0989 18.4554C16.8663 18.5484 16.6803 18.6879 16.4942 18.874C16.2617 19.1066 16.0524 19.3856 15.9361 19.7345C15.8896 19.8508 15.8663 19.9671 15.8431 20.0833C15.8198 20.1996 15.7965 20.3159 15.7965 20.4555C15.7965 20.8043 15.8663 21.1532 16.0058 21.4555C16.0989 21.6648 16.2384 21.8741 16.4245 22.0602C16.657 22.2927 16.9594 22.502 17.285 22.6183C17.4012 22.6648 17.5175 22.6881 17.6338 22.7113C17.7501 22.7346 17.8664 22.7346 17.9827 22.7579C18.3315 22.7579 18.6804 22.6881 18.9827 22.5486C19.192 22.4555 19.4013 22.316 19.5874 22.1532C19.8432 21.9206 20.0292 21.6183 20.1455 21.2927C20.192 21.1764 20.2153 21.0601 20.2386 20.9438C20.2618 20.8276 20.2851 20.7113 20.2851 20.5717C20.2851 20.2229 20.2153 19.874 20.0758 19.5717C19.9595 19.3159 19.8199 19.1298 19.6571 18.9438ZM36.7973 32.3163C36.4717 32.2466 36.1461 32.1768 35.7972 32.1303C35.7507 32.1303 35.7275 32.107 35.7042 32.107C35.7042 31.4093 35.5414 30.7349 35.2856 30.107C35.3089 30.0837 35.3554 30.0372 35.4251 29.9907C35.681 29.8046 35.96 29.6186 36.2159 29.4558C35.9135 28.8278 35.5182 28.2464 35.0298 27.7348C34.7507 27.9208 34.4716 28.1069 34.1925 28.3162C34.146 28.3395 34.1228 28.3627 34.0995 28.3627C33.6111 27.8976 33.0297 27.5022 32.3785 27.2464C32.3785 27.2231 32.3785 27.1999 32.3785 27.1766C32.425 26.9906 32.4483 26.8278 32.4715 26.6417C32.4948 26.4789 32.5181 26.3161 32.5646 26.1301C32.239 26.0138 31.9134 25.9208 31.5645 25.851C31.2157 25.7812 30.8901 25.758 30.5412 25.7347C30.518 25.8975 30.4715 26.0603 30.4482 26.2464C30.425 26.4324 30.3784 26.5952 30.3552 26.7813C30.3552 26.8045 30.3552 26.8278 30.3319 26.851C29.6342 26.851 28.9598 27.0138 28.3319 27.2696C28.3086 27.2464 28.2853 27.2231 28.2621 27.1766C28.076 26.8975 27.8667 26.6185 27.6807 26.3394C27.0527 26.6417 26.4713 27.0371 25.9597 27.5255C26.1457 27.7813 26.3318 28.0604 26.5178 28.3162C26.5644 28.386 26.5876 28.4325 26.6109 28.4557C26.1457 28.9441 25.7504 29.5255 25.4946 30.1535C25.4713 30.1535 25.4248 30.1535 25.3783 30.1535C25.0527 30.0837 24.7271 30.0139 24.3782 29.9674H24.355C24.2387 30.293 24.1457 30.6186 24.0759 30.9907C24.0061 31.3396 23.9829 31.6884 23.9596 32.0373C23.9829 32.0373 23.9829 32.0373 24.0061 32.0373C24.355 32.107 24.7038 32.1768 25.0527 32.2233C25.0759 32.2233 25.0759 32.2233 25.0992 32.2233C25.0992 32.9443 25.262 33.6187 25.5411 34.2466C25.5178 34.2699 25.5178 34.2699 25.4946 34.2932C25.2155 34.4792 24.9596 34.642 24.7038 34.8281C24.6806 34.8513 24.6341 34.8746 24.6108 34.8746C24.9131 35.5025 25.3085 36.0839 25.7969 36.5723C25.7969 36.5723 25.8201 36.5723 25.8201 36.549C26.0992 36.3397 26.4016 36.1537 26.6806 35.9676C26.7039 35.9444 26.7272 35.9444 26.7504 35.9444C27.2388 36.4095 27.8202 36.8049 28.4714 37.0607C28.4714 37.0839 28.4714 37.1072 28.4714 37.1537C28.4016 37.4793 28.3551 37.8282 28.2853 38.1538V38.177C28.6109 38.2933 28.9365 38.3863 29.2854 38.4561C29.6342 38.5259 29.9598 38.5491 30.3087 38.5724V38.5491C30.3552 38.2235 30.4482 37.8747 30.4947 37.5491C30.4947 37.5258 30.518 37.4793 30.518 37.4561C31.2157 37.4561 31.9134 37.2933 32.5413 37.0374C32.5646 37.0607 32.5646 37.0607 32.5878 37.0839C32.7739 37.363 32.9832 37.6654 33.1692 37.9444C33.1692 37.9444 33.1692 37.9677 33.1925 37.9677C33.8204 37.6654 34.4018 37.27 34.9135 36.8049C34.8902 36.7816 34.8902 36.7584 34.867 36.7118C34.6809 36.456 34.5181 36.1769 34.3321 35.9211C34.3088 35.8979 34.3088 35.8746 34.2856 35.8513C34.7739 35.363 35.1461 34.7815 35.4251 34.1071C35.4251 34.1071 35.4484 34.1071 35.4716 34.1071C35.8205 34.1769 36.1693 34.2234 36.5182 34.2932C36.5415 34.2932 36.5415 34.2932 36.5647 34.2932C36.681 33.9676 36.774 33.642 36.8438 33.2931C36.774 33.014 36.7973 32.6652 36.7973 32.3163ZM33.5879 32.7815C33.5646 32.9675 33.5181 33.1303 33.4483 33.2931C33.2855 33.7815 32.9832 34.2001 32.6343 34.5257C32.3785 34.7583 32.0762 34.9676 31.7738 35.1071C31.332 35.3164 30.8436 35.4327 30.3319 35.4095C30.1691 35.4095 29.9831 35.3862 29.8203 35.363C29.6575 35.3397 29.4714 35.2932 29.3319 35.2234C28.8435 35.0606 28.4249 34.7815 28.0993 34.4094C27.8667 34.1536 27.6574 33.8745 27.4946 33.5489C27.2853 33.1071 27.169 32.6187 27.1923 32.0838C27.1923 31.921 27.2155 31.7349 27.2388 31.5489C27.2621 31.3628 27.3086 31.2 27.3783 31.0372C27.5411 30.5488 27.8435 30.1302 28.1923 29.8046C28.4481 29.5488 28.7505 29.3627 29.0761 29.1999C29.518 28.9906 30.0063 28.8744 30.518 28.8976C30.6808 28.8976 30.8668 28.9209 31.0296 28.9441C31.1924 28.9674 31.3785 29.0139 31.5413 29.0837C32.0297 29.2465 32.4483 29.5255 32.7739 29.8976C33.0297 30.1535 33.2158 30.4558 33.3786 30.7581C33.5879 31.2 33.7041 31.6884 33.6809 32.2001C33.6344 32.4326 33.6111 32.6187 33.5879 32.7815Z" fill="white"/>
<path d="M31.4715 31.1535C31.3087 30.9907 31.1227 30.8744 30.9134 30.7814C30.8436 30.7581 30.7738 30.7349 30.6808 30.7116C30.611 30.6884 30.518 30.6884 30.4482 30.6884C30.2157 30.6884 29.9831 30.7349 29.7738 30.8279C29.6342 30.8977 29.4947 30.9907 29.3784 31.107C29.2156 31.2698 29.0761 31.4558 29.0063 31.6652C28.9831 31.7349 28.9598 31.8279 28.9365 31.8977C28.9133 31.9675 28.9133 32.0605 28.9133 32.1303C28.9133 32.3629 28.9598 32.5954 29.0528 32.8047C29.1226 32.9443 29.2156 33.0838 29.3319 33.2001C29.4947 33.3629 29.6808 33.4792 29.8901 33.5722C29.9598 33.5955 30.0296 33.6187 30.1226 33.642C30.1924 33.6652 30.2854 33.6652 30.3552 33.6652C30.5878 33.6652 30.8203 33.6187 31.0296 33.5257C31.1692 33.4559 31.3087 33.3629 31.425 33.2466C31.5878 33.0838 31.7273 32.8978 31.7971 32.6652C31.8204 32.5954 31.8436 32.5024 31.8669 32.4326C31.8901 32.3628 31.8901 32.2698 31.8901 32.2001C31.8901 31.9675 31.8436 31.7349 31.7506 31.5256C31.6808 31.4093 31.5878 31.2698 31.4715 31.1535Z" fill="white"/>
</g>
<defs>
<clipPath id="clip0_53_26">
<rect width="48" height="48" fill="white" transform="translate(0.5 0.87207)"/>
</clipPath>
</defs>
</svg>
