<svg width="49" height="49" viewBox="0 0 49 49" fill="none" xmlns="http://www.w3.org/2000/svg">
<g clip-path="url(#clip0_54_38)">
<path d="M24.5 48.8721C37.7548 48.8721 48.5 38.127 48.5 24.8721C48.5 11.6173 37.7548 0.87207 24.5 0.87207C11.2452 0.87207 0.5 11.6173 0.5 24.8721C0.5 38.127 11.2452 48.8721 24.5 48.8721Z" fill="#FFA40B"/>
<path d="M24.5 48.8721C37.7548 48.8721 48.5 38.127 48.5 24.8721C48.5 11.6173 37.7548 0.87207 24.5 0.87207C11.2452 0.87207 0.5 11.6173 0.5 24.8721C0.5 38.127 11.2452 48.8721 24.5 48.8721Z" fill="#FFA40B"/>
<mask id="mask0_54_38" style="mask-type:alpha" maskUnits="userSpaceOnUse" x="0" y="0" width="49" height="49">
<path d="M24.5 48.8721C37.7548 48.8721 48.5 38.127 48.5 24.8721C48.5 11.6173 37.7548 0.87207 24.5 0.87207C11.2452 0.87207 0.5 11.6173 0.5 24.8721C0.5 38.127 11.2452 48.8721 24.5 48.8721Z" fill="#FFA40B"/>
</mask>
<g mask="url(#mask0_54_38)">
<path d="M12.0907 32.6406L35.4539 55.4697L63.2893 43.1863L36.9041 17.1558L36.2411 16.3823C29.445 16.4007 15.4659 16.4265 13.9189 16.3823C12.7254 16.5149 12.2028 17.4689 12.0907 17.9293V32.6406Z" fill="#FF7712"/>
<path d="M12 17.7921V31.9641L19.086 24.8781L12 17.7921ZM13.408 16.3721L22.379 25.3431C23.512 26.4761 25.488 26.4761 26.621 25.3431L35.592 16.3721H13.408Z" fill="white"/>
<path d="M28.035 26.757C27.092 27.701 25.836 28.222 24.5 28.222C23.164 28.222 21.908 27.701 20.965 26.757L20.5 26.292L13.42 33.372H35.58L28.5 26.292L28.035 26.757ZM29.914 24.878L37 31.964V17.792L29.914 24.878Z" fill="white"/>
</g>
</g>
<defs>
<clipPath id="clip0_54_38">
<rect width="48" height="48" fill="white" transform="translate(0.5 0.87207)"/>
</clipPath>
</defs>
</svg>
