<svg width="49" height="49" viewBox="0 0 49 49" fill="none" xmlns="http://www.w3.org/2000/svg">
<g clip-path="url(#clip0_54_18)">
<path d="M24.5 48.3721C37.7548 48.3721 48.5 37.627 48.5 24.3721C48.5 11.1173 37.7548 0.37207 24.5 0.37207C11.2452 0.37207 0.5 11.1173 0.5 24.3721C0.5 37.627 11.2452 48.3721 24.5 48.3721Z" fill="#FFA40B"/>
<path d="M27.396 48.1671C27.7918 48.1286 28.1866 48.0802 28.58 48.0221C29.3683 47.8862 30.1492 47.711 30.92 47.4971C31.6911 47.2832 32.4511 47.0309 33.197 46.7411C33.9429 46.4511 34.6738 46.1241 35.387 45.7611C36.0998 45.398 36.794 44.9995 37.467 44.5671C38.1402 44.1352 38.7913 43.67 39.418 43.1731C40.045 42.6755 40.6468 42.1468 41.221 41.5891C41.7946 41.0313 42.3399 40.4453 42.855 39.8331C43.3712 39.2211 43.8565 38.5836 44.309 37.9231C44.7608 37.2627 45.1793 36.5802 45.563 35.8781C45.9461 35.1759 46.2939 34.455 46.605 33.7181C46.9167 32.9809 47.1914 32.2287 47.428 31.4641C47.4533 31.3672 47.4779 31.2702 47.502 31.1731L28.555 12.2271C28.485 12.1571 28.404 12.1021 28.328 12.0401C28.271 11.9931 28.218 11.9401 28.158 11.8971C28.057 11.8261 27.948 11.7681 27.838 11.7101C27.775 11.6761 27.716 11.6371 27.65 11.6081C27.555 11.5661 27.454 11.5401 27.354 11.5081C27.265 11.4811 27.181 11.4461 27.09 11.4271L27.084 11.4251C26.8919 11.3851 26.6962 11.365 26.5 11.3651H20.5C20.407 11.3651 20.334 11.3521 20.252 11.3451L19.432 10.5251C19.424 10.5161 19.411 10.5151 19.402 10.5071C19.3559 10.4673 19.304 10.435 19.248 10.4111C19.221 10.3991 19.198 10.3821 19.17 10.3741C19.0846 10.3465 18.9932 10.3431 18.906 10.3641C18.7904 10.3975 18.6886 10.4671 18.6155 10.5627C18.5424 10.6582 18.5019 10.7748 18.5 10.8951V14.7081C18.5 14.8791 18.526 15.0441 18.564 15.2041C18.576 15.2541 18.594 15.3001 18.609 15.3491C18.696 15.6243 18.8382 15.8788 19.027 16.0971C19.057 16.1311 19.082 16.1671 19.113 16.2001L19.135 16.2261L19.5 16.5911V19.4271C19.525 19.7791 19.577 20.1041 19.645 20.4131L19.67 20.5331C19.738 20.8181 19.824 21.0831 19.926 21.3331L19.986 21.4771C20.091 21.7131 20.208 21.9341 20.34 22.1361C20.365 22.1751 20.393 22.2111 20.42 22.2491C20.564 22.4551 20.718 22.6471 20.887 22.8151L20.902 22.8311L21.212 23.1411C21.099 23.9821 20.734 24.4751 20.125 24.9271C19.397 25.4671 18.337 25.8871 17.219 26.3641C16.101 26.8421 14.913 27.4161 14 28.4271C13.087 29.4371 12.5 30.8531 12.5 32.8951V33.2701L27.396 48.1671V48.1671Z" fill="#FF7712"/>
<path d="M18.906 10.364C18.7904 10.3974 18.6886 10.467 18.6155 10.5626C18.5424 10.6582 18.5019 10.7747 18.5 10.895V14.708C18.5 15.461 18.895 16.128 19.5 16.52V19.427C19.621 21.159 20.289 22.37 21.219 23.114C21.109 23.974 20.741 24.47 20.125 24.927C19.397 25.467 18.337 25.887 17.219 26.364C16.101 26.842 14.913 27.416 14 28.427C13.087 29.437 12.5 30.853 12.5 32.8951V33.2701L12.813 33.3951C15.675 34.6381 17.121 35.275 17.843 35.583C18.205 35.737 18.367 35.823 18.469 35.864C18.519 35.884 18.539 35.8791 18.594 35.8951C18.607 35.8951 18.629 35.922 18.656 35.927H18.687C18.77 35.96 18.944 36.033 19.281 36.177C19.985 36.477 21.384 37.072 24.219 38.302L24.438 38.3951L24.656 38.302C26.3397 37.5843 28.0274 36.876 29.719 36.177C30.072 36.031 30.252 35.9301 30.344 35.8951H30.375C30.429 35.8851 30.478 35.871 30.5 35.865C30.543 35.85 30.544 35.853 30.594 35.833C30.694 35.792 30.896 35.705 31.25 35.552C31.958 35.245 33.37 34.6231 36.188 33.3951L36.5 33.2701V32.8951C36.5 30.9021 35.907 29.4981 35 28.5201C34.093 27.5431 32.917 27.018 31.812 26.552C30.708 26.085 29.655 25.669 28.937 25.114C28.233 24.57 27.827 23.943 27.812 22.739C28.784 21.936 29.458 20.807 29.5 19.427V14.552C29.5 12.806 28.178 11.364 26.5 11.364H20.5C20.157 11.364 19.874 11.308 19.75 11.239C19.626 11.17 19.594 11.159 19.594 10.895C19.597 10.56 19.23 10.277 18.906 10.365V10.364ZM24.5 24.95C25.309 24.95 25.965 25.606 25.965 26.415C25.964 26.815 25.801 27.215 25.521 27.487C25.521 27.487 25.158 27.6651 25.314 28.2491L26.5 34.879L24.5 35.879L22.54 34.869L23.746 28.2491C23.903 27.7651 23.555 27.515 23.531 27.487C23.3757 27.3549 23.251 27.1906 23.1653 27.0055C23.0797 26.8204 23.0352 26.619 23.035 26.415C23.035 25.606 23.691 24.95 24.5 24.95V24.95Z" fill="white"/>
</g>
<defs>
<clipPath id="clip0_54_18">
<rect width="48" height="48" fill="white" transform="translate(0.5 0.37207)"/>
</clipPath>
</defs>
</svg>
