<svg width="57" height="57" viewBox="0 0 57 57" fill="none" xmlns="http://www.w3.org/2000/svg">
<circle cx="28.5389" cy="18.4316" r="12" fill="#F2C94C"/>
<path d="M40.3908 8.94398C40.2516 8.8063 40.0642 8.72845 39.8684 8.72707C39.6727 8.72569 39.4842 8.80087 39.3431 8.93657L21.0078 27.2645H19.3263C18.1364 27.2683 16.965 27.5587 15.9111 28.1112L14.6054 28.8057V27.4188C14.6054 27.0097 14.247 26.7089 13.8379 26.7089H7.61101C7.20189 26.7089 6.82647 27.0097 6.82647 27.4188V46.7281C6.82647 47.1373 7.20189 47.4522 7.61101 47.4522H13.8377C14.0352 47.4569 14.2266 47.3835 14.3703 47.2479C14.514 47.1124 14.5984 46.9256 14.6052 46.7281V45.9428L15.9109 46.6215C16.966 47.169 18.1376 47.454 19.3263 47.4522H30.2783C31.4236 47.4522 32.3852 46.5372 32.3852 45.3918V43.3873C32.3795 43.0879 32.309 42.7932 32.1787 42.5234C32.4972 42.3416 32.7614 42.0782 32.9442 41.7603C33.127 41.4424 33.2217 41.0815 33.2187 40.7148V38.7104C33.2199 38.3631 33.1335 38.0211 32.9673 37.7161C33.2651 37.4992 33.5002 37.2075 33.6491 36.8706L50.4594 20.0609C50.5983 19.922 50.6764 19.7336 50.6764 19.5371C50.6764 19.3406 50.5983 19.1522 50.4594 19.0133L40.3908 8.94398ZM13.1236 45.9705H8.30814V28.1905H13.1236V45.9705ZM39.8669 10.5155L41.4708 12.1194L41.2948 12.2953C40.9232 12.6661 40.4197 12.8744 39.8947 12.8744C39.3697 12.8744 38.8661 12.6661 38.4945 12.2953L38.2908 12.0916L39.8669 10.5155ZM33.3113 31.3608C33.305 31.5252 33.2368 31.6811 33.1204 31.7973C33.004 31.9135 32.848 31.9814 32.6836 31.9873H28.4743C28.2778 31.9873 28.0893 32.0654 27.9504 32.2043C27.8115 32.3432 27.7334 32.5317 27.7334 32.7281C27.7334 32.9246 27.8115 33.1131 27.9504 33.252C28.0893 33.3909 28.2778 33.469 28.4743 33.469H31.7482C32.0765 33.469 32.3852 33.705 32.3852 34.0339V36.0378C32.3852 36.3661 32.0765 36.6175 31.7482 36.6175H27.8061C27.6096 36.6175 27.4212 36.6956 27.2823 36.8345C27.1433 36.9734 27.0653 37.1619 27.0653 37.3584C27.0653 37.5548 27.1433 37.7433 27.2823 37.8822C27.4212 38.0211 27.6096 38.0992 27.8061 38.0992H31.1468C31.3057 38.1032 31.4567 38.1695 31.5671 38.2839C31.6776 38.3982 31.7386 38.5514 31.737 38.7104V40.7148C31.7391 40.8753 31.6787 41.0303 31.5685 41.147C31.4584 41.2638 31.3072 41.3331 31.1468 41.3403H27.138C26.9415 41.3403 26.7531 41.4184 26.6141 41.5573C26.4752 41.6962 26.3972 41.8847 26.3972 42.0812C26.3972 42.2776 26.4752 42.4661 26.6141 42.605C26.7531 42.7439 26.9415 42.822 27.138 42.822H30.2783C30.6066 42.822 30.9035 43.0591 30.9035 43.3873V45.3918C30.9035 45.7201 30.6066 45.9705 30.2783 45.9705H19.3263C18.3759 45.9725 17.4391 45.7449 16.5956 45.3071L14.6052 44.272V30.4762L16.5956 29.4252C17.438 28.9827 18.3747 28.7497 19.3263 28.7462H32.6836C32.8463 28.7485 33.002 28.813 33.1188 28.9264C33.2355 29.0399 33.3043 29.1937 33.3113 29.3563V31.3608ZM32.6836 27.2645H31.5047C30.7871 26.4125 30.4017 25.3299 30.4194 24.2162C30.428 23.2672 30.7226 22.3428 31.2647 21.5638C31.8068 20.7848 32.5712 20.1874 33.4581 19.8496C34.345 19.5118 35.3132 19.4493 36.2361 19.6703C37.1591 19.8913 37.994 20.3854 38.6317 21.0882C39.2695 21.791 39.6805 22.6698 39.8111 23.6098C39.9417 24.5499 39.7857 25.5074 39.3636 26.3574C38.9416 27.2074 38.273 27.9104 37.4452 28.3746C36.6174 28.8387 35.6688 29.0424 34.7235 28.9592C34.6326 28.484 34.3795 28.0552 34.0074 27.7461C33.6353 27.4369 33.1673 27.2667 32.6836 27.2645ZM33.8669 34.6004V34.0339C33.8655 33.7461 33.8041 33.4619 33.6866 33.1992C34.021 33.0228 34.3009 32.7582 34.4959 32.4342C34.6909 32.1102 34.7936 31.739 34.7929 31.3608V30.4548C34.8855 30.4625 35.0283 30.4676 35.1536 30.4675C36.5164 30.4668 37.8411 30.0181 38.9238 29.1905C40.0065 28.3628 40.787 27.2022 41.1451 25.8873C41.5032 24.5724 41.419 23.1762 40.9056 21.9139C40.3921 20.6515 39.4779 19.593 38.3036 18.9014C37.1294 18.2098 35.7603 17.9235 34.4074 18.0865C33.0544 18.2495 31.7925 18.8529 30.8162 19.8036C29.8398 20.7544 29.2032 21.9998 29.0043 23.348C28.8054 24.6961 29.0553 26.0723 29.7155 27.2645H23.1036L37.243 13.132L37.4468 13.3394C37.768 13.6612 38.1494 13.9165 38.5693 14.0908C38.9893 14.2651 39.4394 14.3549 39.894 14.3552C40.3487 14.3555 40.7989 14.2661 41.219 14.0923C41.6392 13.9185 42.0209 13.6636 42.3425 13.3422L42.5184 13.1663L46.0477 16.6957L45.8695 16.8821C45.224 17.5324 44.8622 18.4118 44.8634 19.3281C44.8645 20.2444 45.2285 21.1229 45.8756 21.7716C45.88 21.7759 45.8849 21.7802 45.8888 21.7845L46.2949 22.151L33.8669 34.6004ZM47.3223 21.1035L46.9175 20.7184C46.5493 20.3462 46.3434 19.8435 46.3445 19.32C46.3456 18.7965 46.5538 18.2947 46.9235 17.9241C46.9274 17.9202 46.9312 17.9163 46.935 17.9123L47.0958 17.7442L48.8887 19.5371L47.3223 21.1035Z" fill="#222222" stroke="#222222" stroke-width="0.5"/>
</svg>
