<svg width="57" height="57" viewBox="0 0 57 57" fill="none" xmlns="http://www.w3.org/2000/svg">
<circle cx="28.5389" cy="18.4316" r="12" fill="#828282"/>
<path d="M28.5 6.32715C16.3503 6.32715 6.48221 16.1953 6.48221 28.3449C6.48221 40.4946 16.3503 50.3627 28.5 50.3627C40.6497 50.3627 50.5178 40.4946 50.5178 28.3449C50.5178 16.1953 40.6497 6.32715 28.5 6.32715ZM28.5 8.08857C39.6977 8.08857 48.7564 17.1472 48.7564 28.3449C48.7564 39.5427 39.6977 48.6013 28.5 48.6013C17.3023 48.6013 8.24363 39.5427 8.24363 28.3449C8.24363 17.1472 17.3023 8.08857 28.5 8.08857ZM28.5 10.7307C18.7824 10.7307 10.8858 18.6273 10.8858 28.3449C10.8858 32.2893 12.1855 35.9404 14.3794 38.8774C14.4486 38.9701 14.5354 39.0483 14.6349 39.1074C14.7343 39.1666 14.8445 39.2056 14.959 39.2222C15.0735 39.2388 15.1902 39.2327 15.3024 39.2043C15.4145 39.1758 15.52 39.1255 15.6127 39.0563C15.7054 38.987 15.7836 38.9002 15.8428 38.8008C15.902 38.7013 15.941 38.5912 15.9576 38.4766C15.9742 38.3621 15.9681 38.2454 15.9396 38.1333C15.9111 38.0211 15.8608 37.9156 15.7916 37.8229C13.8163 35.1786 12.6472 31.9029 12.6472 28.3449C12.6472 19.5792 19.7343 12.4921 28.5 12.4921C37.2657 12.4921 44.3528 19.5792 44.3528 28.3449C44.3528 37.1106 37.2657 44.1978 28.5 44.1978C25.9431 44.1978 23.5338 43.5949 21.3975 42.5223C21.2942 42.4704 21.1816 42.4392 21.0662 42.4308C20.9509 42.4223 20.8349 42.4366 20.7251 42.4729C20.6153 42.5093 20.5137 42.5669 20.4261 42.6425C20.3385 42.7181 20.2667 42.8102 20.2147 42.9136C20.1628 43.0169 20.1317 43.1295 20.1232 43.2449C20.1148 43.3603 20.1292 43.4762 20.1655 43.586C20.2019 43.6959 20.2595 43.7974 20.3351 43.885C20.4108 43.9725 20.5029 44.0443 20.6063 44.0963C22.9809 45.2884 25.6655 45.9592 28.5 45.9592C38.2176 45.9592 46.1142 38.0626 46.1142 28.3449C46.1142 18.6273 38.2176 10.7307 28.5 10.7307ZM28.4863 17.785C28.253 17.7886 28.0307 17.8847 27.8681 18.0521C27.7056 18.2194 27.6161 18.4445 27.6193 18.6778V20.2878C27.5057 20.308 27.3919 20.3165 27.2787 20.3446H27.2769C25.2091 20.858 23.7094 22.633 23.7094 24.6983C23.7094 26.7564 25.2008 28.5233 27.258 29.0434C28.4823 29.4144 29.2142 29.2605 30.067 29.6076C31.2421 30.2537 31.7724 31.4675 31.4345 32.635C31.0934 33.8137 29.9086 34.6837 28.5034 34.6837C27.0982 34.6837 25.9117 33.8137 25.5706 32.635C25.5384 32.5238 25.4847 32.4201 25.4124 32.3297C25.3401 32.2393 25.2508 32.164 25.1494 32.1082C25.048 32.0523 24.9367 32.017 24.8217 32.0042C24.7066 31.9914 24.5902 32.0014 24.4791 32.0336C24.3679 32.0658 24.2642 32.1195 24.1738 32.1918C24.0834 32.2641 24.0082 32.3535 23.9524 32.4549C23.8965 32.5563 23.8612 32.6676 23.8485 32.7827C23.8357 32.8977 23.8457 33.0141 23.8779 33.1252C24.3722 34.833 25.8572 36.0498 27.6192 36.3608V38.0122C27.6176 38.1289 27.6392 38.2447 27.6827 38.353C27.7262 38.4613 27.7908 38.5599 27.8728 38.643C27.9547 38.7261 28.0523 38.7921 28.16 38.8372C28.2677 38.8822 28.3832 38.9054 28.5 38.9054C28.6167 38.9054 28.7322 38.8822 28.8399 38.8372C28.9476 38.7921 29.0452 38.7261 29.1272 38.643C29.2091 38.5599 29.2737 38.4613 29.3172 38.353C29.3608 38.2447 29.3823 38.1289 29.3807 38.0122V36.3626C31.1455 36.0536 32.6322 34.8352 33.1271 33.1252C33.7025 31.1372 32.741 29.0266 30.8738 28.0285C30.8507 28.0165 30.8272 28.0056 30.8032 27.9958C29.4811 27.4337 28.5931 27.617 27.75 27.3559C27.734 27.3509 27.718 27.3463 27.7018 27.3422C26.3494 27.0064 25.4708 25.9114 25.4708 24.6983C25.4708 23.4848 26.3493 22.3902 27.7018 22.0544C29.0542 21.7191 30.4731 22.2801 31.1421 23.3531C31.2033 23.4513 31.2832 23.5365 31.3773 23.6038C31.4715 23.6711 31.5779 23.7191 31.6906 23.7453C31.8033 23.7714 31.9201 23.7751 32.0342 23.7561C32.1483 23.7371 32.2576 23.6958 32.3558 23.6346C32.4539 23.5734 32.5391 23.4934 32.6063 23.3993C32.6736 23.3051 32.7216 23.1987 32.7477 23.0859C32.7738 22.9732 32.7775 22.8565 32.7585 22.7424C32.7394 22.6282 32.6981 22.519 32.6369 22.4208C31.9099 21.2547 30.7078 20.5001 29.3806 20.2689V18.6778C29.3823 18.56 29.3602 18.443 29.3158 18.3339C29.2714 18.2247 29.2056 18.1256 29.1222 18.0423C29.0387 17.9591 28.9395 17.8934 28.8302 17.8492C28.721 17.805 28.6041 17.7832 28.4863 17.785ZM17.5118 40.0591C17.3292 40.0532 17.1492 40.1043 16.9969 40.2052C16.8446 40.3062 16.7275 40.4519 16.6617 40.6224C16.596 40.7929 16.5848 40.9796 16.6299 41.1566C16.6749 41.3337 16.7739 41.4924 16.9132 41.6107C17.1394 41.8085 17.3701 42.0007 17.6064 42.1869C17.6969 42.2612 17.8013 42.3168 17.9136 42.3502C18.0258 42.3837 18.1436 42.3945 18.2601 42.3819C18.3765 42.3693 18.4893 42.3336 18.5918 42.2768C18.6943 42.2201 18.7844 42.1435 18.8569 42.0516C18.9295 41.9596 18.9829 41.8541 19.0142 41.7412C19.0454 41.6283 19.0539 41.5103 19.039 41.3941C19.0241 41.278 18.9861 41.1659 18.9274 41.0646C18.8687 40.9632 18.7903 40.8746 18.6969 40.8039C18.4842 40.6363 18.2763 40.4626 18.0725 40.2844C17.918 40.1455 17.7194 40.0657 17.5118 40.0591Z" fill="#222222" stroke="#222222" stroke-width="0.5"/>
</svg>
