<svg width="57" height="57" viewBox="0 0 57 57" fill="none" xmlns="http://www.w3.org/2000/svg">
<circle cx="28.5389" cy="18.4316" r="12" fill="#0DE769"/>
<path d="M11.8132 18.2325H38.9682C39.6295 18.2222 40.2863 18.3424 40.901 18.5863C41.5157 18.8303 42.0763 19.193 42.5506 19.6539C43.0249 20.1148 43.4036 20.6647 43.6651 21.2722C43.9266 21.8796 44.0656 22.5327 44.0743 23.194V39.7139C44.0567 41.0456 43.5116 42.3159 42.5585 43.2461C41.6053 44.1763 40.3221 44.6903 38.9904 44.6755H11.8132C11.1534 44.6843 10.4984 44.5629 9.88554 44.3182C9.27273 44.0734 8.71422 43.7103 8.24197 43.2494C7.76973 42.7885 7.39304 42.239 7.13348 41.6323C6.87391 41.0257 6.73657 40.3738 6.72931 39.7139V23.194C6.73657 22.5342 6.87391 21.8823 7.13348 21.2756C7.39304 20.6689 7.76973 20.1194 8.24197 19.6586C8.71422 19.1977 9.27273 18.8345 9.88554 18.5898C10.4984 18.3451 11.1534 18.2237 11.8132 18.2325ZM11.5685 21.3473C11.116 21.3414 10.6795 21.5147 10.3544 21.8294C10.0292 22.1441 9.84183 22.5747 9.83305 23.0271V39.8808C9.83594 40.1053 9.88321 40.327 9.97214 40.5331C10.0611 40.7392 10.1899 40.9257 10.3512 41.0819C10.5125 41.238 10.7031 41.3607 10.912 41.4428C11.1209 41.525 11.344 41.565 11.5685 41.5606H39.2129C39.4374 41.565 39.6605 41.525 39.8694 41.4428C40.0783 41.3607 40.2689 41.238 40.4302 41.0819C40.5915 40.9257 40.7203 40.7392 40.8093 40.5331C40.8982 40.327 40.9455 40.1053 40.9483 39.8808V23.0271C40.9396 22.5747 40.7522 22.1441 40.427 21.8294C40.1019 21.5147 39.6654 21.3414 39.2129 21.3473H11.5685ZM20.8018 15.1399C20.5855 15.1581 20.3677 15.1313 20.1623 15.061C19.9569 14.9908 19.7683 14.8786 19.6084 14.7317C19.4486 14.5848 19.3209 14.4063 19.2337 14.2075C19.1464 14.0087 19.1013 13.794 19.1013 13.5769C19.1013 13.3598 19.1464 13.145 19.2337 12.9462C19.3209 12.7474 19.4486 12.5689 19.6084 12.422C19.7683 12.2751 19.9569 12.1629 20.1623 12.0927C20.3677 12.0224 20.5855 11.9956 20.8018 12.0139H43.7295C45.4242 11.975 47.065 12.6105 48.2915 13.7807C49.518 14.9509 50.2299 16.56 50.2707 18.2547V30.6697C50.2707 31.1034 50.0984 31.5194 49.7917 31.826C49.4851 32.1327 49.0691 32.305 48.6354 32.305C48.2017 32.305 47.7857 32.1327 47.4791 31.826C47.1724 31.5194 47.0001 31.1034 47.0001 30.6697V18.2547C46.99 17.8354 46.8974 17.4222 46.7275 17.0387C46.5577 16.6552 46.3139 16.3089 46.0102 16.0196C45.7064 15.7304 45.3487 15.5038 44.9574 15.3528C44.566 15.2019 44.1488 15.1295 43.7295 15.1399H20.8018Z" fill="#222222"/>
<path d="M17.0783 29.1612H33.4117C33.8449 29.1612 34.2603 28.9891 34.5666 28.6828C34.8729 28.3765 35.045 27.9611 35.045 27.5279C35.045 27.0947 34.8729 26.6792 34.5666 26.3729C34.2603 26.0666 33.8449 25.8945 33.4117 25.8945H17.0783C16.6452 25.8945 16.2297 26.0666 15.9234 26.3729C15.6171 26.6792 15.445 27.0947 15.445 27.5279C15.445 27.9611 15.6171 28.3765 15.9234 28.6828C16.2297 28.9891 16.6452 29.1612 17.0783 29.1612Z" fill="#222222"/>
<line x1="7.99652" y1="11.0207" x2="50.1513" y2="45.915" stroke="#222222" stroke-width="1.8" stroke-linecap="round"/>
</svg>
