<svg width="57" height="57" viewBox="0 0 57 57" fill="none" xmlns="http://www.w3.org/2000/svg">
<circle cx="28.5389" cy="18.4316" r="12" fill="#E97730"/>
<path d="M47.2596 6.90527H9.74054C8.2934 6.90527 7.06061 8.05742 7.06061 9.55773V32.868C7.06061 34.3228 8.28541 35.5204 9.74054 35.5204H47.2596C48.7463 35.5204 49.9395 34.2966 49.9395 32.868V9.55773C49.9395 8.02344 48.6737 6.90527 47.2596 6.90527ZM8.84724 9.70821L21.5045 20.0519L8.84724 32.4551V9.70821ZM29.0444 23.0211C28.7356 23.2719 28.2689 23.2719 27.9635 23.0228L10.4273 8.69189H46.578L29.0444 23.0211ZM22.8968 21.1897L26.8338 24.4073C27.8043 25.1964 29.2079 25.1901 30.1741 24.4055L34.1088 21.19L46.9095 33.7338H10.0958L22.8968 21.1897ZM35.5011 20.0522L48.1529 9.71246V32.4501L35.5011 20.0522ZM13.9838 41.8155V38.8372C13.9838 38.3439 13.5842 37.9439 13.0905 37.9439C12.5967 37.9439 12.1972 38.3439 12.1972 38.8372V41.8155C12.1972 42.3088 12.5967 42.7088 13.0905 42.7088C13.5842 42.7088 13.9838 42.3088 13.9838 41.8155ZM21.6886 43.5842V38.8372C21.6886 38.3439 21.289 37.9439 20.7953 37.9439C20.3015 37.9439 19.9019 38.3439 19.9019 38.8372V43.5842C19.9019 44.0775 20.3015 44.4775 20.7953 44.4775C21.289 44.4775 21.6886 44.0775 21.6886 43.5842ZM29.3934 45.3534V38.8372C29.3934 38.3439 28.9938 37.9439 28.5001 37.9439C28.0063 37.9439 27.6067 38.3439 27.6067 38.8372V45.3534C27.6067 45.8467 28.0063 46.2467 28.5001 46.2467C28.9938 46.2467 29.3934 45.8467 29.3934 45.3534ZM37.0982 47.1221V38.8372C37.0982 38.3439 36.6986 37.9439 36.2049 37.9439C35.7111 37.9439 35.3115 38.3439 35.3115 38.8372V47.1221C35.3115 47.6154 35.7111 48.0154 36.2049 48.0154C36.6986 48.0154 37.0982 47.6154 37.0982 47.1221ZM43.9096 37.9439C43.4159 37.9439 43.0163 38.3439 43.0163 38.8372V48.8909C43.0163 49.3842 43.4159 49.7842 43.9096 49.7842C44.4034 49.7842 44.803 49.3842 44.803 48.8909V38.8372C44.803 38.3439 44.4034 37.9439 43.9096 37.9439Z" fill="#222222" stroke="#222222" stroke-width="0.5"/>
</svg>
