<svg width="57" height="57" viewBox="0 0 57 57" fill="none" xmlns="http://www.w3.org/2000/svg">
<circle cx="28.5389" cy="18.4316" r="12" fill="#EB5757"/>
<path d="M16.9898 31.9727C16.9126 31.9727 16.7581 31.9727 16.6808 31.8954L8.4151 23.5524C8.2606 23.3979 8.2606 23.1662 8.4151 23.0117C8.5696 22.8572 8.80135 22.8572 8.95585 23.0117L16.9898 31.0457L25.2555 22.7799L17.2216 14.746C17.0671 14.5915 17.0671 14.3597 17.2216 14.2052C17.3761 14.0507 17.6078 14.0507 17.7623 14.2052L26.028 22.4709C26.1053 22.5482 26.1053 22.6254 26.1053 22.7799C26.1053 22.9344 26.1825 22.9344 26.1053 23.0117L17.2988 31.8182C17.2216 31.8954 17.1443 31.9727 16.9898 31.9727Z" fill="#222222" stroke="#222222"/>
<path d="M14.6723 29.5784C14.595 29.5784 14.4405 29.5784 14.3633 29.5011L6.94733 22.0852C6.79283 21.9307 6.79283 21.6989 6.94733 21.5444C7.10183 21.3899 7.33357 21.3899 7.48807 21.5444L14.595 28.6514L22.8608 20.3857L15.7538 13.2787C15.5993 13.1242 15.5993 12.8924 15.7538 12.7379C15.9083 12.5834 16.14 12.5834 16.2945 12.7379L23.7105 20.1539C23.865 20.3084 23.865 20.5402 23.7105 20.6947L14.904 29.5011C14.8268 29.5784 14.7495 29.5784 14.6723 29.5784ZM40.0102 31.4324C39.933 31.4324 39.7785 31.4324 39.7012 31.3551L30.8947 22.5487C30.8175 22.4714 30.8175 22.3942 30.8175 22.2397C30.8175 22.0852 30.8947 22.0079 30.8947 21.9307L39.2377 13.6649C39.3922 13.5104 39.624 13.5104 39.7785 13.6649C39.933 13.8194 39.933 14.0512 39.7785 14.2057L31.7445 22.2397L40.0102 30.5054L48.0442 22.4714C48.1987 22.3169 48.4304 22.3169 48.5849 22.4714C48.7394 22.6259 48.7394 22.8577 48.5849 23.0122L40.242 31.3551C40.1647 31.4324 40.0875 31.4324 40.0102 31.4324V31.4324Z" fill="#222222" stroke="#222222"/>
<path d="M42.3277 29.1146C42.2505 29.1146 42.096 29.0374 42.0187 29.0374L33.2895 20.1536C33.135 19.9991 33.135 19.7674 33.2895 19.6129L40.7055 12.1969C40.86 12.0424 41.0917 12.0424 41.2462 12.1969C41.4007 12.3514 41.4007 12.5832 41.2462 12.7377L34.1393 19.8447L42.405 28.1104L49.512 21.0034C49.6665 20.8489 49.8982 20.8489 50.0527 21.0034C50.2072 21.1579 50.2072 21.3896 50.0527 21.5441L42.6367 28.9601C42.5595 29.0374 42.405 29.1146 42.3277 29.1146V29.1146ZM26.8005 26.1019C26.7233 26.1019 26.5688 26.1019 26.4915 26.0246L25.0238 24.4796C24.8693 24.3251 24.8693 24.0934 25.0238 23.9389C25.1783 23.7844 25.4101 23.7844 25.5646 23.9389L27.0323 25.4066C27.1868 25.5611 27.1868 25.7929 27.0323 25.9474C26.955 26.0246 26.8778 26.1019 26.8005 26.1019V26.1019ZM33.5985 40.1613C33.135 40.1613 32.6715 40.0068 32.3625 39.6206L30.4313 37.6893C30.2768 37.5348 30.2768 37.3031 30.4313 37.1486C30.5858 36.9941 30.8175 36.9941 30.972 37.1486L32.9033 39.0798C33.2895 39.4661 33.9075 39.4661 34.2938 39.0798C34.68 38.6936 34.68 38.0756 34.2938 37.6893L32.3625 35.7581C32.208 35.6036 32.208 35.3718 32.3625 35.2173C32.517 35.0628 32.7488 35.0628 32.9033 35.2173L34.8345 37.1486C35.5298 37.8438 35.5298 38.9253 34.8345 39.6206C34.5255 40.0068 34.062 40.1613 33.5985 40.1613V40.1613Z" fill="#222222" stroke="#222222"/>
<path d="M31.6672 42.0926C31.2038 42.0926 30.7403 41.9381 30.4313 41.5518L28.5 39.6206C28.3455 39.4661 28.3455 39.2343 28.5 39.0798C28.6545 38.9253 28.8863 38.9253 29.0408 39.0798L30.972 41.0111C31.3583 41.3973 31.9762 41.3973 32.3625 41.0111C32.7487 40.6248 32.7487 40.0068 32.3625 39.6206L30.4313 37.6893C30.2768 37.5348 30.2768 37.3031 30.4313 37.1486C30.5858 36.9941 30.8175 36.9941 30.972 37.1486L32.9032 39.0798C33.5985 39.7751 33.5985 40.8566 32.9032 41.5518C32.5942 41.9381 32.1307 42.0926 31.6672 42.0926V42.0926ZM26.337 44.5646C25.8735 44.5646 25.41 44.4101 25.101 44.0238C24.4058 43.3286 24.4058 42.2471 25.101 41.5518L26.1053 40.5476C26.2598 40.3931 26.4915 40.3931 26.646 40.5476C26.8005 40.7021 26.8005 40.9338 26.646 41.0883L25.6418 42.0926C25.2555 42.4788 25.2555 43.0968 25.6418 43.4831C26.028 43.8693 26.646 43.8693 27.0323 43.4831L28.0365 42.4788C28.191 42.3243 28.4228 42.3243 28.5773 42.4788C28.7318 42.6333 28.7318 42.8651 28.5773 43.0196L27.573 44.0238C27.1868 44.4101 26.7233 44.5646 26.337 44.5646Z" fill="#222222" stroke="#222222"/>
<path d="M24.3285 42.6334C23.865 42.6334 23.4015 42.4789 23.0925 42.0926C22.3973 41.3974 22.3973 40.3159 23.0925 39.6206L24.0968 38.6164C24.2513 38.4619 24.483 38.4619 24.6375 38.6164C24.792 38.7709 24.792 39.0026 24.6375 39.1571L23.6333 40.1614C23.4788 40.3159 23.3243 40.6249 23.3243 40.8566C23.3243 41.0884 23.4015 41.3974 23.6333 41.5519C24.0195 41.9381 24.6375 41.9381 25.0238 41.5519L26.028 40.5476C26.1825 40.3931 26.4142 40.3931 26.5687 40.5476C26.7232 40.7021 26.7232 40.9339 26.5687 41.0884L25.5645 42.0926C25.2555 42.4016 24.792 42.6334 24.3285 42.6334V42.6334Z" fill="#222222" stroke="#222222"/>
<path d="M22.3973 40.625C21.9338 40.625 21.4703 40.4705 21.1613 40.0843C20.466 39.3891 20.466 38.3076 21.1613 37.6123L22.1655 36.6081C22.32 36.4536 22.5518 36.4536 22.7063 36.6081C22.8608 36.7626 22.8608 36.9943 22.7063 37.1488L21.702 38.1531C21.3158 38.5393 21.3158 39.1573 21.702 39.5436C22.0883 39.9298 22.7063 39.9298 23.0925 39.5436L24.0968 38.5393C24.2513 38.3848 24.483 38.3848 24.6375 38.5393C24.792 38.6938 24.792 38.9256 24.6375 39.0801L23.6333 40.0843C23.3243 40.4705 22.8608 40.625 22.3973 40.625V40.625Z" fill="#222222" stroke="#222222"/>
<path d="M20.466 38.6935C20.0025 38.6935 19.539 38.539 19.23 38.1528C18.5348 37.4575 18.5348 36.376 19.23 35.6808L20.2343 34.6765C20.3888 34.522 20.6205 34.522 20.775 34.6765C20.9295 34.831 20.9295 35.0628 20.775 35.2173L19.7708 36.2215C19.3845 36.6078 19.3845 37.2258 19.7708 37.612C20.157 37.9983 20.775 37.9983 21.1613 37.612L22.1655 36.6078C22.32 36.4533 22.5518 36.4533 22.7063 36.6078C22.8608 36.7623 22.8608 36.994 22.7063 37.1485L21.702 38.1528C21.3158 38.539 20.9295 38.6935 20.466 38.6935V38.6935ZM35.607 38.23C35.1435 38.23 34.68 38.0755 34.371 37.6893L32.3625 35.758C32.208 35.6035 32.208 35.3718 32.3625 35.2173C32.517 35.0628 32.7487 35.0628 32.9032 35.2173L34.8345 37.1485C35.2207 37.5348 35.8387 37.5348 36.225 37.1485C36.3795 36.994 36.534 36.685 36.534 36.4533C36.534 36.2215 36.4567 35.9125 36.225 35.758L28.8862 28.4193C28.7317 28.2648 28.7317 28.0331 28.8862 27.8786C29.0407 27.7241 29.2725 27.7241 29.427 27.8786L36.7657 35.2173C37.0747 35.5263 37.3065 35.9898 37.3065 36.4533C37.3065 36.9168 37.152 37.3803 36.7657 37.6893C36.534 37.9983 36.0705 38.23 35.607 38.23V38.23Z" fill="#222222" stroke="#222222"/>
<path d="M29.736 44.101C29.2725 44.101 28.809 43.9465 28.5 43.5603L19.6935 34.7538C19.23 34.3676 19.0755 33.7496 19.23 33.2088C19.3073 32.9771 19.3073 32.4363 18.9983 32.1273L17.7623 30.8913C17.685 30.8141 17.685 30.7368 17.685 30.5823C17.685 30.4278 17.7623 30.3506 17.7623 30.2733L24.6375 23.3981C24.792 23.2436 25.0238 23.2436 25.1782 23.3981L27.6502 25.8701C27.8047 26.0246 27.8047 26.2564 27.6502 26.4109C27.4957 26.5654 27.264 26.5654 27.1095 26.4109L24.9465 24.2479L18.6893 30.5051L19.6163 31.4321C20.0798 31.8956 20.2343 32.5136 20.0798 33.2088C20.0025 33.5178 20.0798 33.9041 20.3888 34.1358L29.0407 43.0195C29.427 43.4058 30.045 43.4058 30.4312 43.0195C30.5857 42.865 30.7402 42.556 30.7402 42.3243C30.7402 42.0925 30.663 41.7835 30.4312 41.629L28.5 39.6206C28.3455 39.4661 28.3455 39.2343 28.5 39.0798C28.6545 38.9253 28.8862 38.9253 29.0407 39.0798L30.972 41.0111C31.6672 41.7063 31.6672 42.7878 30.972 43.483C30.663 43.8693 30.1995 44.101 29.736 44.101ZM36.0705 35.3718C35.9932 35.3718 35.8387 35.3718 35.7615 35.2946C35.607 35.1401 35.607 34.9083 35.7615 34.7538L36.7657 33.7496C36.9975 33.5178 37.0747 33.2088 37.0747 32.8226C36.9202 32.1273 37.0747 31.4321 37.5382 31.0458L38.4652 30.1188L31.899 23.5526C31.7445 23.3981 31.7445 23.1664 31.899 23.0119C32.0535 22.8574 32.2852 22.8574 32.4397 23.0119L39.3149 29.8871C39.4694 30.0416 39.4694 30.2733 39.3149 30.4278L38.079 31.6638C37.6927 32.0501 37.7699 32.5136 37.8472 32.7453C37.9244 33.2861 37.77 33.9041 37.3837 34.3676L36.3795 35.3718C36.3022 35.2946 36.1477 35.3718 36.0705 35.3718V35.3718Z" fill="#222222" stroke="#222222"/>
<path d="M25.3328 31.432C24.5603 31.432 23.8651 31.123 23.4016 30.5822L23.0926 30.3505C22.9381 30.196 22.9381 29.9642 23.0926 29.8097L27.8048 25.0975C28.2683 24.634 28.8863 24.4795 29.427 24.5567L30.4313 24.7112C30.8175 24.7885 31.1265 24.634 31.4355 24.4022L32.3625 23.4752C32.517 23.3208 32.7488 23.3208 32.9033 23.4752L39.7785 30.3505C39.933 30.505 39.933 30.7367 39.7785 30.8912C39.624 31.0457 39.3922 31.0457 39.2377 30.8912L32.6715 24.325L32.0535 24.943C31.59 25.4065 30.972 25.561 30.4313 25.4837L29.427 25.3292C29.0408 25.252 28.7318 25.4065 28.4228 25.6382L24.0196 30.0415C24.7921 30.814 26.1053 30.814 26.8778 30.0415L29.5815 27.3377C29.736 27.1832 29.9678 27.1832 30.1223 27.3377C30.2768 27.4922 30.2768 27.724 30.1223 27.8785L27.264 30.6595C26.8005 31.123 26.1053 31.432 25.3328 31.432Z" fill="#222222" stroke="#222222"/>
</svg>
