<svg width="57" height="57" viewBox="0 0 57 57" fill="none" xmlns="http://www.w3.org/2000/svg">
<circle cx="28.5389" cy="18.4316" r="12" fill="#1975D2"/>
<path d="M39.4013 27.7326C39.3927 31.222 37.6683 34.5507 34.8064 36.5502C31.8773 38.5966 28.0723 39.0312 24.7415 37.7557C21.5306 36.5261 19.0742 33.6977 18.2233 30.376C17.3476 26.9577 18.2642 23.2354 20.6008 20.6003C22.9591 17.9409 26.503 16.6399 30.0247 17.0639C33.4536 17.4767 36.5168 19.6549 38.1457 22.6851C38.9766 24.2307 39.397 25.979 39.4013 27.7326C39.4026 28.2693 40.2349 28.2695 40.2336 27.7326C40.2291 25.8957 39.7925 24.0878 38.9613 22.4504C38.1584 20.8689 36.975 19.5062 35.5633 18.4399C32.6419 16.2333 28.7091 15.5888 25.2199 16.6637C21.7848 17.722 19.0168 20.3938 17.7671 23.7524C16.4904 27.1839 16.9883 31.1491 19.0243 34.1819C21.0475 37.1955 24.4186 39.0973 28.0377 39.3012C31.6564 39.5052 35.2427 37.9228 37.5551 35.1388C39.2794 33.0629 40.227 30.4305 40.2336 27.7326C40.235 27.1958 39.4026 27.196 39.4013 27.7326Z" fill="#222222"/>
<path d="M39.4013 27.7326C39.3927 31.222 37.6683 34.5507 34.8064 36.5502C31.8773 38.5966 28.0723 39.0312 24.7415 37.7557C21.5306 36.5261 19.0742 33.6977 18.2233 30.376C17.3476 26.9577 18.2642 23.2354 20.6008 20.6003C22.9591 17.9409 26.503 16.6399 30.0247 17.0639C33.4536 17.4767 36.5168 19.6549 38.1457 22.6851C38.9766 24.2307 39.397 25.979 39.4013 27.7326C39.4026 28.2693 40.2349 28.2695 40.2336 27.7326C40.2291 25.8957 39.7925 24.0878 38.9613 22.4504C38.1584 20.8689 36.975 19.5062 35.5633 18.4399C32.6419 16.2333 28.7091 15.5888 25.2199 16.6637C21.7848 17.722 19.0168 20.3938 17.7671 23.7524C16.4904 27.1839 16.9883 31.1491 19.0243 34.1819C21.0475 37.1955 24.4186 39.0973 28.0377 39.3012C31.6564 39.5052 35.2427 37.9228 37.5551 35.1388C39.2794 33.0629 40.227 30.4305 40.2336 27.7326C40.235 27.1958 39.4026 27.196 39.4013 27.7326V27.7326Z" stroke="#222222" stroke-width="1.2"/>
<path d="M12.6479 25.5655C12.6558 21.4721 14.238 17.505 17.0579 14.5375C19.8582 11.5907 23.7441 9.80546 27.7991 9.59354C31.8995 9.37921 35.9845 10.7727 39.0882 13.4542C42.1481 16.0978 44.1372 19.8739 44.5503 23.8927C44.6074 24.4484 44.6331 25.007 44.6341 25.5655C44.6353 26.1907 45.6049 26.1908 45.6038 25.5655C45.5956 21.3382 44.0002 17.243 41.1569 14.1168C38.34 11.0196 34.4071 9.09142 30.2504 8.6804C26.0536 8.26541 21.7567 9.49214 18.4031 12.044C15.0991 14.5582 12.7778 18.2417 11.9892 22.3236C11.783 23.3907 11.6803 24.479 11.6782 25.5655C11.6771 26.1908 12.6467 26.1907 12.6479 25.5655Z" fill="#222222" stroke="#222222" stroke-width="1.2"/>
<path d="M11.6653 31.4299C11.6553 31.6648 11.4732 31.681 11.2503 31.681H9.3543C9.16056 31.681 9.00815 31.6287 9.00815 31.4265V24.0171C9.00815 23.8863 9.00833 23.7829 9.09869 23.7178C9.22843 23.6243 9.49082 23.6624 9.67588 23.6624H11.413C11.5839 23.6624 11.6653 23.7891 11.6653 23.9576V29.385L11.6653 31.4299C11.6653 32.0551 12.6349 32.0551 12.6349 31.4299V24.5811C12.6349 24.2462 12.6751 23.865 12.5761 23.5406C12.4179 23.0223 11.9135 22.6929 11.3836 22.6929H9.53815C9.20969 22.6929 8.90398 22.7025 8.60927 22.8806C8.07447 23.2037 8.0385 23.7613 8.0385 24.3076V31.3858C8.0385 31.973 8.41974 32.4965 9.00478 32.6226C9.34889 32.6967 9.7402 32.6506 10.0882 32.6506H11.3382C12.051 32.6506 12.6041 32.1512 12.6348 31.4299C12.6615 30.8044 11.6917 30.807 11.6653 31.4299ZM48.2675 31.4299C48.2575 31.6649 48.0755 31.681 47.8526 31.681H45.9565C45.7627 31.681 45.6103 31.6287 45.6103 31.4265V24.0171C45.6103 23.8864 45.6106 23.7829 45.7008 23.7178C45.8306 23.6243 46.093 23.6624 46.2781 23.6624H48.0152C48.1861 23.6624 48.2675 23.7891 48.2675 23.9576V31.4299C48.2675 32.0551 49.2371 32.0551 49.2371 31.4299V24.5811C49.2371 24.2462 49.2774 23.865 49.1784 23.5406C49.0202 23.0223 48.5158 22.6929 47.9859 22.6929H46.1404C45.812 22.6929 45.5062 22.7025 45.2115 22.8806C44.6768 23.2037 44.6408 23.7614 44.6408 24.3076V31.3858C44.6408 31.973 45.022 32.4966 45.6071 32.6226C45.9512 32.6967 46.3425 32.6506 46.6906 32.6506H47.9406C48.6534 32.6506 49.2065 32.1512 49.2372 31.4299C49.2637 30.8044 48.294 30.807 48.2675 31.4299ZM29.3914 45.5427C29.3842 45.9641 29.1897 46.3716 28.8504 46.6152C28.5578 46.8253 28.2594 46.8713 27.9071 46.8713C27.2635 46.8713 26.4722 46.9946 25.9708 46.5826C25.2556 45.9948 25.3419 44.8867 26.1137 44.4058C26.3972 44.2291 26.6918 44.2142 27.025 44.2142H28.0111C28.7694 44.2141 29.3782 44.7768 29.3914 45.5427C29.4022 46.1673 30.3718 46.1684 30.361 45.5427C30.3401 44.3274 29.4394 43.3981 28.2521 43.2543C27.9613 43.2191 27.6548 43.2446 27.363 43.2446C27.025 43.2446 26.6952 43.2364 26.36 43.2887C25.2229 43.4662 24.4164 44.614 24.5129 45.732C24.6157 46.9216 25.6169 47.8205 26.8013 47.8409C27.3618 47.8506 27.9489 47.8834 28.5041 47.7968C29.5845 47.6282 30.3428 46.598 30.361 45.5428C30.3718 44.9171 29.4022 44.9181 29.3914 45.5427Z" fill="#222222"/>
<path d="M11.6653 31.4299C11.6553 31.6648 11.4732 31.681 11.2503 31.681H9.3543C9.16056 31.681 9.00815 31.6287 9.00815 31.4265V24.0171C9.00815 23.8863 9.00833 23.7829 9.09869 23.7178C9.22843 23.6243 9.49082 23.6624 9.67588 23.6624H11.413C11.5839 23.6624 11.6653 23.7891 11.6653 23.9576V29.385L11.6653 31.4299ZM11.6653 31.4299C11.6653 32.0551 12.6349 32.0551 12.6349 31.4299V24.5811C12.6349 24.2462 12.6751 23.865 12.5761 23.5406C12.4179 23.0223 11.9135 22.6929 11.3836 22.6929H9.53815C9.20969 22.6929 8.90398 22.7025 8.60927 22.8806C8.07447 23.2037 8.0385 23.7613 8.0385 24.3076V31.3858C8.0385 31.973 8.41974 32.4965 9.00478 32.6226C9.34889 32.6967 9.7402 32.6506 10.0882 32.6506H11.3382C12.051 32.6506 12.6041 32.1512 12.6348 31.4299C12.6615 30.8044 11.6917 30.807 11.6653 31.4299V31.4299ZM48.2675 31.4299C48.2575 31.6649 48.0755 31.681 47.8526 31.681H45.9565C45.7627 31.681 45.6103 31.6287 45.6103 31.4265V24.0171C45.6103 23.8864 45.6106 23.7829 45.7008 23.7178C45.8306 23.6243 46.093 23.6624 46.2781 23.6624H48.0152C48.1861 23.6624 48.2675 23.7891 48.2675 23.9576V31.4299C48.2675 32.0551 49.2371 32.0551 49.2371 31.4299V24.5811C49.2371 24.2462 49.2774 23.865 49.1784 23.5406C49.0202 23.0223 48.5158 22.6929 47.9859 22.6929H46.1404C45.812 22.6929 45.5062 22.7025 45.2115 22.8806C44.6768 23.2037 44.6408 23.7614 44.6408 24.3076V31.3858C44.6408 31.973 45.022 32.4966 45.6071 32.6226C45.9512 32.6967 46.3425 32.6506 46.6906 32.6506H47.9406C48.6534 32.6506 49.2065 32.1512 49.2372 31.4299C49.2637 30.8044 48.294 30.807 48.2675 31.4299V31.4299ZM29.3914 45.5427C29.3842 45.9641 29.1897 46.3716 28.8504 46.6152C28.5578 46.8253 28.2594 46.8713 27.9071 46.8713C27.2635 46.8713 26.4722 46.9946 25.9708 46.5826C25.2556 45.9948 25.3419 44.8867 26.1137 44.4058C26.3972 44.2291 26.6918 44.2142 27.025 44.2142H28.0111C28.7694 44.2141 29.3782 44.7768 29.3914 45.5427C29.4022 46.1673 30.3718 46.1684 30.361 45.5427C30.3401 44.3274 29.4394 43.3981 28.2521 43.2543C27.9614 43.2191 27.6548 43.2446 27.363 43.2446C27.025 43.2446 26.6952 43.2364 26.36 43.2887C25.2229 43.4662 24.4164 44.614 24.5129 45.732C24.6157 46.9216 25.6169 47.8205 26.8013 47.8409C27.3618 47.8506 27.9489 47.8834 28.5041 47.7968C29.5845 47.6282 30.3428 46.598 30.361 45.5428C30.3718 44.9171 29.4022 44.9181 29.3914 45.5427V45.5427Z" stroke="#222222" stroke-width="1.2"/>
<path d="M11.687 30.6154C11.6965 34.9563 13.5289 39.1515 16.7179 42.0988C18.7861 44.0102 21.3721 45.3425 24.1297 45.9129C24.3883 45.9663 24.6527 45.8412 24.7261 45.5743C24.7927 45.3321 24.6464 45.0315 24.3875 44.9779C20.3085 44.1341 16.7437 41.5752 14.6392 37.98C13.3345 35.7513 12.6623 33.1946 12.6567 30.6154C12.6553 29.9902 11.6857 29.9901 11.687 30.6154Z" fill="#222222" stroke="#222222" stroke-width="1.2"/>
</svg>
