<svg width="32" height="33" viewBox="0 0 32 33" fill="none" xmlns="http://www.w3.org/2000/svg">
<path d="M25.3966 16.207C25.1274 16.207 24.8692 16.1001 24.6788 15.9097C24.4884 15.7193 24.3814 15.4611 24.3814 15.1918V12.3249C24.3814 8.26415 20.6293 5.01552 16.0162 5.01552C11.4032 5.01552 7.651 8.30475 7.651 12.3249V15.1918C7.651 15.4611 7.54404 15.7193 7.35365 15.9097C7.16327 16.1001 6.90505 16.207 6.6358 16.207C6.36656 16.207 6.10834 16.1001 5.91795 15.9097C5.72756 15.7193 5.62061 15.4611 5.62061 15.1918V12.3249C5.62061 7.15961 10.2905 2.95264 16.0162 2.95264C21.7419 2.95264 26.4118 7.15961 26.4118 12.3249V15.1918C26.4129 15.3255 26.3874 15.458 26.3368 15.5816C26.2861 15.7053 26.2114 15.8176 26.1169 15.9121C26.0224 16.0066 25.9101 16.0813 25.7864 16.132C25.6628 16.1826 25.5303 16.2081 25.3966 16.207Z" fill="#F0483E"/>
<path d="M22.6516 25.7578C22.3823 25.7578 22.1241 25.6509 21.9337 25.4605C21.7433 25.2701 21.6364 25.0119 21.6364 24.7426V15.1023C21.6448 14.8388 21.7555 14.5888 21.945 14.4054C22.1345 14.222 22.3879 14.1195 22.6516 14.1196C26.152 14.1196 29.0027 16.7429 29.0027 19.959C29.0027 23.1752 26.152 25.7578 22.6516 25.7578ZM23.6668 16.2231V23.6219C24.5556 23.4747 25.3673 23.0279 25.9671 22.3557C26.567 21.6835 26.9188 20.8263 26.9641 19.9266C26.9206 19.0254 26.5696 18.1663 25.9696 17.4924C25.3696 16.8186 24.5569 16.3706 23.6668 16.2231ZM9.34845 25.7578C5.84805 25.7578 2.99738 23.1427 2.99738 19.9266C2.99738 16.7104 5.84805 14.1196 9.34845 14.1196C9.61769 14.1196 9.87591 14.2266 10.0663 14.417C10.2567 14.6074 10.3636 14.8656 10.3636 15.1348V24.7426C10.3636 25.0119 10.2567 25.2701 10.0663 25.4605C9.87591 25.6509 9.61769 25.7578 9.34845 25.7578ZM8.33325 16.2231C7.44313 16.3706 6.6304 16.8186 6.03043 17.4924C5.43045 18.1663 5.07945 19.0254 5.03589 19.9266C5.08126 20.8263 5.43307 21.6835 6.03289 22.3557C6.6327 23.0279 7.44443 23.4747 8.33325 23.6219V16.2231Z" fill="#F0483E"/>
<path d="M22.3186 29.0635H18.9562C18.687 29.0635 18.4288 28.9566 18.2384 28.7662C18.048 28.5758 17.941 28.3176 17.941 28.0483C17.941 27.7791 18.048 27.5209 18.2384 27.3305C18.4288 27.1401 18.687 27.0331 18.9562 27.0331H22.3186C22.8441 27.0331 23.3482 26.8244 23.7198 26.4527C24.0915 26.0811 24.3002 25.5771 24.3002 25.0515V24.6048C24.3002 24.3355 24.4072 24.0773 24.5976 23.8869C24.788 23.6966 25.0462 23.5896 25.3154 23.5896C25.5847 23.5896 25.8429 23.6966 26.0333 23.8869C26.2237 24.0773 26.3306 24.3355 26.3306 24.6048V25.0515C26.3306 26.1155 25.9079 27.136 25.1555 27.8884C24.4031 28.6408 23.3826 29.0635 22.3186 29.0635Z" fill="#F0483E"/>
<path d="M17.2182 30.9723H15.2122C14.4756 30.9723 13.7691 30.6796 13.2482 30.1587C12.7273 29.6378 12.4346 28.9313 12.4346 28.1947V28.081C12.4368 27.3457 12.7304 26.6413 13.251 26.1222C13.7717 25.603 14.477 25.3115 15.2122 25.3115H17.2182C17.9527 25.3115 18.6572 25.6033 19.1765 26.1227C19.6959 26.6421 19.9877 27.3465 19.9877 28.081V28.1947C19.9877 28.9299 19.6962 29.6352 19.177 30.1559C18.6579 30.6765 17.9535 30.9701 17.2182 30.9723ZM15.2285 27.3419C15.0317 27.3419 14.8429 27.4195 14.703 27.5579C14.5631 27.6963 14.4834 27.8842 14.4813 28.081V28.1947C14.4813 28.3928 14.56 28.5829 14.7001 28.723C14.8402 28.8631 15.0303 28.9419 15.2285 28.9419H17.2182C17.415 28.9397 17.603 28.8601 17.7413 28.7202C17.8797 28.5803 17.9573 28.3914 17.9573 28.1947V28.081C17.9573 27.885 17.8794 27.697 17.7408 27.5584C17.6022 27.4198 17.4143 27.3419 17.2182 27.3419H15.2285Z" fill="#F0483E"/>
</svg>
